<?xml version="1.0" encoding="UTF-8" standalone="no"?>
<!-- Created with Inkscape (http://www.inkscape.org/) -->

<svg
   width="162.52724mm"
   height="53.954456mm"
   viewBox="0 0 162.52724 53.954456"
   version="1.1"
   id="svg1"
   xml:space="preserve"
   xmlns="http://www.w3.org/2000/svg"
   xmlns:svg="http://www.w3.org/2000/svg"><defs
     id="defs1" /><g
     id="layer2"
     transform="translate(-76.307137,-336.97869)"><g
       id="g124"
       transform="matrix(0.26458333,0,0,0.26458333,95.703,-1408.3214)"><g
         id="g113"
         transform="translate(2272.6105,1363.2643)"><rect
           style="display:inline;fill:#d3d3d3;fill-opacity:1;stroke-width:0.685886"
           id="rect111"
           width="108.34801"
           height="86.228912"
           x="-6670.6533"
           y="3962.7515"
           ry="15.132936"
           transform="matrix(0.86103732,-0.50854177,0.86246601,0.50611498,0,0)" /><rect
           style="display:inline;fill:#ff4b4a;fill-opacity:1;stroke-width:0.685886"
           id="rect112"
           width="108.34801"
           height="86.228912"
           x="-6665.3755"
           y="3957.1729"
           ry="15.132936"
           transform="matrix(0.86103732,-0.50854177,0.86246601,0.50611498,-3.9370093e-6,3.1496083e-6)" /><path
           style="display:none;fill:#d3d3d3;fill-opacity:1;stroke-width:3"
           d="m -2318.5849,5392.5707 0.2649,5.4157 1.5245,-3.1388 z"
           id="path112" /><path
           style="display:none;fill:#d3d3d3;fill-opacity:1;stroke-width:3"
           d="m -2166.1902,5380.4741 0.2803,5.7309 -1.7855,-3.2677 z"
           id="path113" /></g><g
         id="g115"
         transform="translate(2272.6558,1363.2643)"><rect
           style="display:inline;fill:#d3d3d3;fill-opacity:1;stroke-width:0.799983"
           id="rect113"
           width="126.37179"
           height="100.57315"
           x="-6638.1196"
           y="3913.9976"
           ry="17.650312"
           transform="matrix(0.86103732,-0.50854177,0.86246601,0.50611498,0,0)" /><rect
           style="display:inline;fill:#ed3439;fill-opacity:1;stroke-width:0.799983"
           id="rect114"
           width="126.37179"
           height="100.57315"
           x="-6632.6792"
           y="3908.3618"
           ry="17.650312"
           transform="matrix(0.86103732,-0.50854177,0.86246601,0.50611499,-3.9370093e-6,3.1496083e-6)" /><path
           style="display:none;fill:#d3d3d3;fill-opacity:1;stroke-width:3"
           d="m -2153.5148,5337.173 0.1818,5.6995 -1.524,-3.0024 z"
           id="path114" /><path
           style="display:none;fill:#d3d3d3;fill-opacity:1;stroke-width:3"
           d="m -2331.2578,5351.3749 0.1893,5.8427 1.1827,-3.3712 z"
           id="path115" /></g><g
         id="g117"
         transform="translate(2272.7441,1363.2643)"><rect
           style="display:inline;fill:#d3d3d3;fill-opacity:1;stroke-width:0.93306"
           id="rect115"
           width="147.39383"
           height="117.30358"
           x="-6600.0356"
           y="3856.9131"
           ry="20.586458"
           transform="matrix(0.86103732,-0.50854177,0.86246601,0.50611498,0,0)" /><rect
           style="display:inline;fill:#e51111;fill-opacity:1;stroke-width:0.93306"
           id="rect116"
           width="147.39383"
           height="117.30358"
           x="-6593.6851"
           y="3850.5732"
           ry="20.586458"
           transform="matrix(0.86103732,-0.50854177,0.86246601,0.50611498,-3.9370093e-6,3.1496083e-6)" /><path
           style="display:none;fill:#d3d3d3;fill-opacity:1;stroke-width:3"
           d="m -2346.0485,5301.7571 v 6.9611 l 2.1912,-4.1843 z"
           id="path116" /><path
           style="display:none;fill:#d3d3d3;fill-opacity:1;stroke-width:3"
           d="m -2138.7237,5285.9088 0.012,6.7204 -2.0697,-3.8697 z"
           id="path117" /></g><path
         d="m 255.15455,6766.0134 q -4.144,0 -7.94266,-1.0853 -3.79867,-1.1347 -6.11733,-2.9107 l 2.71333,-6.0187 q 2.22,1.5787 5.22933,2.6147 3.05867,0.9867 6.16666,0.9867 2.368,0 3.79867,-0.444 1.48,-0.4934 2.17066,-1.332 0.69067,-0.8387 0.69067,-1.924 0,-1.3814 -1.08533,-2.1707 -1.08534,-0.8387 -2.86134,-1.332 -1.77599,-0.5427 -3.94666,-0.9867 -2.12133,-0.4933 -4.292,-1.184 -2.12133,-0.6906 -3.89733,-1.776 -1.776,-1.0853 -2.91066,-2.8613 -1.08534,-1.776 -1.08534,-4.5387 0,-2.96 1.57867,-5.3773 1.628,-2.4667 4.83466,-3.8973 3.256,-1.48 8.14,-1.48 3.256,0 6.41333,0.7893 3.15733,0.74 5.57466,2.2693 l -2.46666,6.068 q -2.41734,-1.3813 -4.83467,-2.0226 -2.41733,-0.6907 -4.73599,-0.6907 -2.31867,0 -3.79867,0.5427 -1.48,0.5426 -2.12133,1.4306 -0.64133,0.8387 -0.64133,1.9734 0,1.332 1.08533,2.1706 1.08533,0.7894 2.86133,1.2827 1.776,0.4933 3.89733,0.9867 2.17067,0.4933 4.292,1.1346 2.17066,0.6414 3.94666,1.7267 1.776,1.0853 2.86133,2.8613 1.13467,1.776 1.13467,4.4894 0,2.9106 -1.628,5.328 -1.628,2.4173 -4.884,3.8973 -3.20666,1.48 -8.13999,1.48 z m 37.70133,0 q -4.09466,0 -7.59733,-1.332 -3.45333,-1.332 -6.01866,-3.7493 -2.516,-2.4174 -3.94666,-5.6734 -1.38134,-3.256 -1.38134,-7.104 0,-3.848 1.38134,-7.104 1.43066,-3.256 3.99599,-5.6733 2.56534,-2.4173 6.01867,-3.7493 3.45333,-1.332 7.49866,-1.332 4.09466,0 7.49866,1.332 3.45333,1.332 5.96933,3.7493 2.56533,2.4173 3.996,5.6733 1.43066,3.2067 1.43066,7.104 0,3.848 -1.43066,7.1534 -1.43067,3.256 -3.996,5.6733 -2.516,2.368 -5.96933,3.7 -3.404,1.332 -7.44933,1.332 z m -0.0493,-6.808 q 2.31866,0 4.24266,-0.7893 1.97334,-0.7894 3.45333,-2.2694 1.48,-1.48 2.26934,-3.5026 0.83866,-2.0227 0.83866,-4.4894 0,-2.4666 -0.83866,-4.4893 -0.78934,-2.0227 -2.26934,-3.5027 -1.43066,-1.48 -3.40399,-2.2693 -1.97334,-0.7893 -4.292,-0.7893 -2.31867,0 -4.292,0.7893 -1.924,0.7893 -3.404,2.2693 -1.47999,1.48 -2.31866,3.5027 -0.78933,2.0227 -0.78933,4.4893 0,2.4174 0.78933,4.4894 0.83867,2.0226 2.26933,3.5026 1.48,1.48 3.45333,2.2694 1.97333,0.7893 4.292,0.7893 z m 25.71331,6.216 v -34.5333 h 26.09731 v 6.4133 h -18.10532 v 28.12 z m 7.39999,-12.58 v -6.4133 h 16.57599 v 6.4133 z m 32.32394,12.58 v -28.0213 h -11.05066 v -6.512 h 30.09331 v 6.512 h -11.05066 v 28.0213 z m 31.76323,0 -11.29733,-34.5333 h 8.288 l 9.81732,30.5866 h -4.14399 l 10.26132,-30.5866 h 7.4 l 9.86666,30.5866 h -3.996 l 10.06399,-30.5866 h 7.64667 l -11.29733,34.5333 h -8.58399 l -8.732,-26.8373 h 2.26933 l -8.97866,26.8373 z m 43.4639,0 15.39199,-34.5333 h 7.89333 l 15.44132,34.5333 h -8.38666 l -12.62933,-30.488 h 3.15733 l -12.67865,30.488 z m 7.69599,-7.4 2.12133,-6.068 h 17.75999 l 2.17067,6.068 z m 35.43201,7.4 v -34.5333 h 14.75066 q 7.20266,0 11.19866,3.3546 3.996,3.3054 3.996,9.176 0,3.848 -1.82534,6.66 -1.82533,2.7627 -5.17999,4.2427 -3.35467,1.48 -7.992,1.48 h -10.50799 l 3.552,-3.5027 v 13.1227 z m 21.95332,0 -8.63333,-12.5307 h 8.53466 l 8.732,12.5307 z m -13.96132,-12.2347 -3.552,-3.7493 h 10.06399 q 3.7,0 5.52533,-1.5787 1.82533,-1.628 1.82533,-4.44 0,-2.8613 -1.82533,-4.44 -1.82533,-1.5786 -5.52533,-1.5786 h -10.06399 l 3.552,-3.7987 z m 29.06801,12.2347 v -34.5333 h 26.09732 v 6.4133 H 521.6016 v 21.7067 h 18.79598 v 6.4133 z m 7.35067,-14.4053 v -6.216 h 16.62532 v 6.216 z"
         id="text118"
         style="font-weight:bold;font-size:49.3333px;font-family:Montserrat;-inkscape-font-specification:'Montserrat Bold';letter-spacing:0.8px"
         aria-label="SOFTWARE" /><path
         d="m 241.57672,6683.7539 v -74.6669 h 31.89343 q 15.57338,0 24.21341,7.2534 8.64003,7.1467 8.64003,19.84 0,8.3201 -3.94668,14.4001 -3.94668,5.9733 -11.20004,9.1733 -7.25335,3.2 -17.28005,3.2 h -22.72007 l 7.68002,-7.5733 v 28.3734 z m 47.46681,0 -18.66672,-27.0934 h 18.45339 l 18.88006,27.0934 z m -30.18676,-26.4534 -7.68002,-8.1067 h 21.76007 q 8.00002,0 11.9467,-3.4133 3.94668,-3.5201 3.94668,-9.6001 0,-6.1867 -3.94668,-9.6 -3.94668,-3.4133 -11.9467,-3.4133 h -21.76007 l 7.68002,-8.2134 z m 97.38704,27.7334 q -8.85337,0 -16.42672,-2.88 -7.46669,-2.88 -13.01338,-8.1067 -5.44001,-5.2267 -8.53336,-12.2667 -2.98667,-7.04 -2.98667,-15.36 0,-8.3201 2.98667,-15.3601 3.09335,-7.04 8.64003,-12.2667 5.54668,-5.2267 13.01337,-8.1067 7.46669,-2.88 16.21339,-2.88 8.85336,0 16.21338,2.88 7.46669,2.88 12.90671,8.1067 5.54668,5.2267 8.64003,12.2667 3.09334,6.9334 3.09334,15.3601 0,8.32 -3.09334,15.4667 -3.09335,7.04 -8.64003,12.2667 -5.44002,5.12 -12.90671,8 -7.36002,2.88 -16.10671,2.88 z m -0.10667,-14.72 q 5.01335,0 9.17336,-1.7067 4.26668,-1.7067 7.46669,-4.9067 3.20001,-3.2 4.90668,-7.5733 1.81334,-4.3734 1.81334,-9.7067 0,-5.3334 -1.81334,-9.7067 -1.70667,-4.3734 -4.90668,-7.5734 -3.09334,-3.2 -7.36002,-4.9067 -4.26668,-1.7067 -9.28003,-1.7067 -5.01335,0 -9.28003,1.7067 -4.16001,1.7067 -7.36002,4.9067 -3.20001,3.2 -5.01335,7.5734 -1.70667,4.3733 -1.70667,9.7067 0,5.2266 1.70667,9.7067 1.81334,4.3733 4.90668,7.5733 3.20001,3.2 7.46669,4.9067 4.26668,1.7067 9.28003,1.7067 z m 68.26683,13.44 v -60.5868 h -23.89341 v -14.0801 h 65.06687 v 14.0801 h -23.89341 v 60.5868 z m 101.65367,0 v -74.6669 h 17.28005 v 74.6669 z m -51.20016,0 v -74.6669 h 17.28005 v 74.6669 z m 16.00005,-30.6134 v -14.6134 h 36.48011 v 14.6134 z"
         id="text117"
         style="font-weight:bold;font-size:106.667px;font-family:Montserrat;-inkscape-font-specification:'Montserrat Bold';letter-spacing:0px;stroke-width:0.99564"
         transform="scale(0.99564039,1.0043787)"
         aria-label="ROTH" /><path
         style="display:inline;fill:#d3d3d3;fill-opacity:1;stroke-width:1.22154"
         d="m 50.67541,6689.6781 c -2.4827,0.6672 -2.9684,0.5387 -7.9004,-2.0914 l -4.5461,-2.4238 -3.7507,2.0564 c -4.1337,2.2664 -5.1824,2.5534 -8.4709,2.3177 -1.4907,-0.1044 -2.0477,-0.3293 -4.8163,-1.9202 l -3.1307,-1.7994 -5.1194,2.9302 -5.1195001,2.9296 -1.8886,0.02 c -2.1111,0.019 -3.4481,-0.5641 -3.9886,-1.7266 -0.5502,-1.1839 0.096,-1.8019 5.0673,-4.844 l 4.6038001,-2.8175 -4.1937001,-2.5147 c -3.2541,-1.9507 -4.2855,-2.4589 -4.6034,-2.2683 -0.2253,0.1347 -2.4968,1.4126 -5.0477,2.8395 -5.2761,2.9508 -6.3575,3.2604 -8.7419999,2.502 -1.734,-0.5516 -2.384,-1.3878 -1.989,-2.5587 0.2714,-0.8048 0.7592,-1.1678 4.9989999,-3.7212 l 4.6984,-2.829 -4.1589,-2.4944 -4.1588999,-2.4942 -4.8787,2.8959 -4.8788,2.8956 -2.0839,0.082 c -2.224,0.089 -3.554,-0.3987 -4.1983,-1.5405 -0.6935,-1.2283 0.1082,-2.0015 5.2172,-5.0343 l 4.7076,-2.7937 -3.368,-1.9354 c -3.8585,-2.2178 -4.5317,-3.0404 -3.9619,-4.8423 0.3296,-1.0424 0.6159,-1.288 3.9128,-3.3502 l 3.5572,-2.2252 -3.7721,-2.1675 -3.7721,-2.1681 0.094,-1.047 c 0.1738,-1.9366 3.648,-3.3325 6.6129,-2.6572 0.5608,0.1279 2.5138,1.091 4.34,2.1405 l 3.3204,1.9081 4.8377999,-2.8714 4.838,-2.8713 -3.7972,-2.1821 -3.7971,-2.1821 0.094,-1.0475 c 0.1149,-1.2786 1.377,-2.2218 3.6801,-2.7499 1.9589,-0.4492 3.3108,-0.042 7.0944,2.1308 l 3.4988,2.0105 4.6766001,-2.7754 4.6767,-2.7758 -3.3679,-1.9353 c -4.4135001,-2.5364 -4.8585001,-3.3058 -3.0384001,-5.2523 0.5114002,-0.5472 2.9031001,-1.2245 4.2570001,-1.2063 0.7377,0.019 2.069,0.5736 4.9729,2.1043 l 3.9655,2.0906 3.5893,-1.9605 c 2.9304,-1.6013 3.8625,-1.9945 5.078,-2.145 3.5648,-0.4415 5.5583,0.058 9.7197,2.4357 l 2.6936,1.539 4.6927,-2.7855 c 5.139,-3.0499 6.4121,-3.5255 8.4444,-3.1555 2.0691,0.3768 2.9288,1.125 2.8103,2.4459 l -0.1093,1.2182 -4.8701,2.8903 -4.8702,2.8908 4.2104,2.4194 4.2103,2.42 3.9844,-2.3261 c 2.1915,-1.2792 4.16,-2.3941 4.3745,-2.4783 0.2145,-0.084 0.7476,-0.3419 1.1847,-0.5729 0.4371,-0.2309 1.6009,-0.4522 2.5863,-0.4916 2.2271,-0.089 4.0302,0.8055 4.1766,2.0725 0.1449,1.2539 -1.3315,2.4851 -6.0705,5.0628 l -4.1262,2.2446 4.4947,2.5826 4.4947,2.5827 5.031,-2.9857 5.031,-2.986 1.8376,-0.036 c 2.5405,-0.051 4.0868,0.8391 4.0978,2.3599 l 0.01,1.103 -4.9334,3.0368 -4.9334,3.0368 2.0707,1.2064 c 3.7815,2.2033 4.6951,3.4416 4.0228,5.4541 -0.2379,0.7124 -0.8969,1.2626 -3.5903,2.9998 l -3.2989,2.1278 4.2376,2.6234 c 4.7028,2.9117 4.9449,3.2499 3.4715,4.8519 -0.6114,0.6651 -1.0645,0.8985 -2.3504,1.2122 -2.5514,0.6221 -3.928,0.2351 -8.4895,-2.3862 l -3.9487,-2.2691 -4.6766,2.7757 -4.6767,2.7754 4.0796,2.3446 c 4.681,2.6901 5.268,3.3843 4.1202,4.8742 -0.8794,1.1413 -2.8669,1.8662 -4.9459,1.8042 -1.2558,-0.036 -1.8227,-0.2883 -5.7106,-2.5224 l -4.3163,-2.4808 -4.838,2.8717 -4.8378,2.8714 3.8766,2.2277 c 2.1321,1.2254 4.1235,2.5518 4.4252,2.9481 0.9391,1.2329 -0.3166,2.9134 -2.6445,3.5388 z m 20.1193,-31.8367 c 0.8153,-0.9747 0.995,-2.5452 0.4021,-3.5134 -0.398,-0.6498 -3.7309,-2.6623 -17.7058,-10.6916 -10.4021,-5.9765 -17.7484,-10.0506 -18.5622,-10.2942 -1.5277,-0.4568 -4.6829,-0.3805 -6.4915,0.1576 -1.6824,0.5004 -38.638,22.4342 -39.4676,23.4248 -0.892,1.0648 -0.9722,2.9084 -0.165,3.7933 1.0512,1.152 34.3474,20.2375 36.0931,20.6885 1.6862,0.4358 4.283,0.4173 6.0637,-0.042 1.7524,-0.4533 38.8723,-22.3728 39.8332,-23.5219 z m -41.1831,15.2248 c -0.2872,-0.065 -6.1682,-3.4065 -13.069,-7.4263 l -12.5468001,-7.3084 13.7073001,-8.1358 13.7075,-8.1354 12.9213,7.4253 12.9214,7.4255 -13.5598,8.1366 c -10.6761,6.4063 -13.6708,8.1112 -14.0819,8.0185 z"
         id="path123" /><rect
         style="display:inline;fill:#e51111;fill-opacity:1;stroke-width:0.685885"
         id="rect123"
         width="45.376907"
         height="36.113274"
         x="-6571.876"
         y="6554.7061"
         ry="6.3377795"
         transform="matrix(0.86103732,-0.50854177,0.86246602,0.50611498,0,0)" /></g></g></svg>
